<svg width="158" height="152" viewBox="0 0 158 152" fill="none" xmlns="http://www.w3.org/2000/svg">
<path d="M78.9998 0.0112305C73.1915 0.0112305 67.3827 2.1428 62.9627 6.4068L34.74 33.6334H35.5922C42.7889 33.6334 49.5287 36.3154 54.6287 41.2355L74.4067 60.3154C76.9567 62.7207 81.0429 62.7207 83.5929 60.3154L103.371 41.2355C108.471 36.3154 115.211 33.6334 122.407 33.6334H123.26L95.0369 6.4068C90.6169 2.1428 84.8081 0.0112305 78.9998 0.0112305ZM26.24 41.8334L6.86047 60.5289C-1.97953 69.0569 -1.97953 82.9431 6.86047 91.4711L26.24 110.167H35.5922C40.5222 110.167 45.1733 108.312 48.63 104.978L68.408 85.8977C74.2447 80.267 83.7549 80.267 89.5916 85.8977L109.37 104.978C112.826 108.312 117.477 110.167 122.407 110.167H131.76L151.139 91.4711C159.979 82.9431 159.979 69.0569 151.139 60.5289L131.76 41.8334H122.407C117.477 41.8334 112.826 43.6878 109.37 47.0224L89.5916 66.1024C86.7016 68.8904 82.8531 70.3198 78.9998 70.3198C75.1465 70.3198 71.298 68.8904 68.408 66.1024L48.63 47.0224C45.1733 43.6878 40.5222 41.8334 35.5922 41.8334H26.24ZM78.9998 89.8802C77.3423 89.8802 75.6817 90.482 74.4067 91.6847L54.6287 110.765C49.5287 115.685 42.7889 118.367 35.5922 118.367H34.74L62.9627 145.593C71.8027 154.121 86.1969 154.121 95.0369 145.593L123.26 118.367H122.407C115.211 118.367 108.471 115.685 103.371 110.765L83.5929 91.6847C82.3179 90.482 80.6573 89.8802 78.9998 89.8802Z" fill="#2F3FCA"/>
</svg>
